<svg width="46" height="26" viewBox="0 0 46 26" fill="none" xmlns="http://www.w3.org/2000/svg">
  <rect width="46" height="26" rx="4" fill="#F2F2F2" />
  <path fill-rule="evenodd" clip-rule="evenodd" d="M8.06002 8.00171C8.38754 7.99975 9.3609 7.91208 9.7732 9.30359C10.0509 10.2409 10.4933 11.7763 11.1004 13.9098H11.3477C11.9987 11.6605 12.4459 10.1251 12.6894 9.30359C13.106 7.89759 14.1474 8.00173 14.564 8.00173L17.7782 8.00174V18H14.5022V12.1078H14.2826L12.4564 18H9.99169L8.16552 12.1035H7.94585V18H4.66992V8.00174L8.06002 8.00171ZM22.4823 8.00174V13.8983H22.7437L24.965 9.04959C25.3962 8.08469 26.3153 8.00174 26.3153 8.00174H29.4854V18H26.141V12.1035H25.8797L23.7019 16.9521C23.2707 17.9127 22.3081 18 22.3081 18H19.138V8.00174H22.4823ZM41.0449 12.753C40.5784 14.0749 39.1134 15.0217 37.4915 15.0217H33.9843V18H30.804V12.753H41.0449Z" fill="#0F754E" />
  <path fill-rule="evenodd" clip-rule="evenodd" d="M37.6444 8.00195H30.6367C30.8035 10.2279 32.7204 12.1335 34.7049 12.1335H41.2654C41.644 10.2834 40.3407 8.00195 37.6444 8.00195Z" fill="url(#paint0_linear_4701_1072)" />
  <defs>
    <linearGradient id="paint0_linear_4701_1072" x1="41.3297" y1="10.6009" x2="30.6367" y2="10.6009" gradientUnits="userSpaceOnUse">
      <stop stop-color="#1F5CD7" />
      <stop offset="1" stop-color="#02AEFF" />
    </linearGradient>
  </defs>
</svg>