<svg width="38" height="12" viewBox="0 0 38 12" fill="none" xmlns="http://www.w3.org/2000/svg">
  <g clip-path="url(#clip0_4701_1079)">
    <path d="M16.528 11.8268H13.5244L15.4031 0.210449H18.4065L16.528 11.8268Z" fill="#00579F" />
    <path d="M27.4168 0.494553C26.8243 0.259513 25.8846 0 24.7228 0C21.7566 0 19.6678 1.58171 19.655 3.84309C19.6304 5.51153 21.1505 6.43822 22.2874 6.99453C23.4495 7.56299 23.8445 7.93403 23.8445 8.44074C23.8327 9.21895 22.9055 9.57767 22.0407 9.57767C20.8416 9.57767 20.199 9.39272 19.2226 8.95976L18.8271 8.77416L18.4067 11.3818C19.1112 11.7027 20.4091 11.9875 21.7566 12C24.9082 12 26.96 10.4428 26.9843 8.03291C26.9963 6.71054 26.1936 5.69729 24.4631 4.86931C23.4125 4.33781 22.7692 3.97942 22.7692 3.43559C22.7815 2.9412 23.3133 2.43482 24.4992 2.43482C25.4757 2.41002 26.1931 2.64473 26.7366 2.87961L27.0083 3.00296L27.4168 0.494553Z" fill="#00579F" />
    <path d="M31.4088 7.71152C31.6562 7.04418 32.608 4.46137 32.608 4.46137C32.5955 4.48617 32.8548 3.78171 33.0032 3.34924L33.2131 4.35017C33.2131 4.35017 33.7819 7.13074 33.9054 7.71152C33.436 7.71152 32.0021 7.71152 31.4088 7.71152ZM35.1164 0.210449H32.7931C32.0766 0.210449 31.5323 0.420359 31.2232 1.17426L26.7617 11.8266H29.9133C29.9133 11.8266 30.4322 10.3929 30.5437 10.0841C30.8895 10.0841 33.9553 10.0841 34.4001 10.0841C34.4863 10.4919 34.7585 11.8266 34.7585 11.8266H37.5395L35.1164 0.210449Z" fill="#00579F" />
    <path d="M11.0158 0.210449L8.07423 8.13167L7.75279 6.52515C7.20897 4.67144 5.50341 2.65743 3.6001 1.656L6.29443 11.8144H9.47067L14.1918 0.210449H11.0158Z" fill="#00579F" />
    <path d="M5.3429 0.210449H0.510376L0.460938 0.44516C4.23061 1.40914 6.72718 3.73276 7.75292 6.52564L6.70238 1.18691C6.52943 0.444996 5.99792 0.234922 5.3429 0.210449Z" fill="#FAA61A" />
  </g>
  <defs>
    <clipPath id="clip0_4701_1079">
      <rect width="37.0784" height="12" fill="white" transform="translate(0.460938)" />
    </clipPath>
  </defs>
</svg>