<svg width="46" height="26" viewBox="0 0 46 26" fill="none" xmlns="http://www.w3.org/2000/svg">
  <rect width="46" height="26" rx="4" fill="#F2F2F2" />
  <path d="M26.9265 5.92529H19.0508V20.0748H26.9265V5.92529Z" fill="#FF5A00" />
  <path d="M19.5749 13C19.5749 10.1252 20.9264 7.57379 23.0002 5.92524C21.474 4.72524 19.5487 4 17.4487 4C12.474 4 8.44873 8.02524 8.44873 13C8.44873 17.9748 12.474 22 17.4487 22C19.5487 22 21.474 21.2748 23.0002 20.0748C20.9235 18.4495 19.5749 15.8748 19.5749 13Z" fill="#EB001B" />
  <path d="M37.5515 13C37.5515 17.9748 33.5262 22 28.5515 22C26.4515 22 24.5262 21.2748 23 20.0748C25.1 18.4233 26.4252 15.8748 26.4252 13C26.4252 10.1252 25.0738 7.57379 23 5.92524C24.5233 4.72524 26.4485 4 28.5485 4C33.5262 4 37.5515 8.05146 37.5515 13Z" fill="#F79E1B" />
</svg>