<svg width="46" height="26" viewBox="0 0 46 26" fill="none" xmlns="http://www.w3.org/2000/svg">
  <rect width="46" height="26" rx="4" fill="#F2F2F2" />
  <path fill-rule="evenodd" clip-rule="evenodd" d="M12.7857 18.4972C14.0316 18.4972 15.3833 18.9236 16.8799 20.2468C17.0298 20.3792 17.2294 20.2146 17.0983 20.0499C15.628 18.1969 14.268 17.8442 12.9117 17.5461C11.2523 17.181 10.3992 16.2492 9.80449 15.2263C9.68629 15.023 9.63294 15.0589 9.62236 15.3206C9.60902 15.6402 9.63156 16.0638 9.70331 16.4805C9.63616 16.4833 9.56901 16.4828 9.50094 16.4828C7.12777 16.4828 5.20347 14.5622 5.20347 12.1931C5.20347 9.82457 7.12777 7.90441 9.5014 7.90441C11.8746 7.90441 13.7989 9.82457 13.7989 12.1931C13.7989 12.3619 13.7906 12.5289 13.7713 12.6922C13.4576 12.6356 12.8399 12.6291 12.4067 12.6664C12.2439 12.6807 12.2669 12.7565 12.3901 12.7786C13.8108 13.0348 14.7863 13.9137 15.0098 15.5082C15.0144 15.545 15.0632 15.5556 15.082 15.5239C15.6861 14.518 16.0043 13.3664 16.0023 12.1931C16.0023 8.61038 13.0915 5.70508 9.5014 5.70508C5.91082 5.70508 3 8.60992 3 12.1931C3 15.7768 5.91082 18.6821 9.5014 18.6821C10.4534 18.6821 11.399 18.4972 12.7857 18.4972ZM13.2695 16.1415C13.5588 16.3853 13.6466 16.6755 13.494 16.8802C13.4089 16.9924 13.2709 17.0545 13.1053 17.0545C12.9438 17.0545 12.7874 16.9979 12.6633 16.8944C12.4003 16.6649 12.323 16.2933 12.4945 16.0822C12.5617 15.9994 12.6707 15.9539 12.8013 15.9539C12.96 15.9539 13.1265 16.0206 13.2695 16.1415ZM14.6042 15.5216C14.6465 15.8058 14.5568 15.9235 14.4662 15.9235C14.3673 15.9235 14.2436 15.8086 14.0978 15.5809C13.9534 15.3565 13.9005 15.0989 13.9723 14.9688C14.0192 14.8827 14.1181 14.845 14.2427 14.8924C14.4842 14.983 14.5784 15.3519 14.6042 15.5216ZM23.6158 14.036L22.8662 13.136C22.8486 13.1148 22.8374 13.089 22.834 13.0616C22.8305 13.0343 22.835 13.0065 22.8467 12.9816C22.8585 12.9567 22.8772 12.9356 22.9005 12.921C22.9238 12.9063 22.9508 12.8985 22.9784 12.8987H24.5462C24.6208 12.677 24.6631 12.4401 24.6631 12.1936C24.6631 11.0668 23.8223 10.095 22.6689 10.095C21.5154 10.095 20.6747 11.0668 20.6747 12.1936C20.6747 13.3204 21.5154 14.2789 22.6689 14.2789C23.0184 14.2789 23.338 14.1901 23.6158 14.036ZM27.0073 15.5561C27.0887 15.6462 27.022 15.7906 26.8992 15.7906H25.1883C25.1539 15.7907 25.1199 15.7831 25.0888 15.7686C25.0576 15.7541 25.03 15.7328 25.008 15.7065L24.7183 15.3583C24.1081 15.754 23.3962 15.9643 22.6689 15.9636C20.5859 15.9636 18.8916 14.2724 18.8916 12.1936C18.8916 10.1148 20.5859 8.42365 22.6689 8.42365C24.7518 8.42365 26.4462 10.1148 26.4462 12.1936C26.4462 12.9433 26.2254 13.6414 25.846 14.2292L27.0073 15.5561ZM42.8142 8.59796H41.4174C41.3683 8.59808 41.3212 8.61765 41.2865 8.65238C41.2518 8.68712 41.2322 8.73419 41.2321 8.78331V15.6053C41.2321 15.7078 41.3149 15.7906 41.4174 15.7906H42.8142C42.9168 15.7906 43 15.7078 43 15.6053V8.78285C43 8.73357 42.9804 8.68631 42.9456 8.65147C42.9107 8.61662 42.8635 8.59796 42.8142 8.59796ZM40.464 8.59796H38.9021C38.8625 8.59781 38.8238 8.61037 38.7917 8.63379C38.7597 8.65721 38.736 8.69026 38.7241 8.72812L37.4879 12.7598L36.1288 8.72352C36.1164 8.6867 36.0927 8.65472 36.0611 8.63211C36.0295 8.60949 35.9915 8.59739 35.9527 8.5975H34.8627C34.8237 8.59736 34.7857 8.60945 34.7541 8.63206C34.7224 8.65467 34.6986 8.68666 34.6861 8.72352L33.3275 12.7598L32.0912 8.72812C32.0794 8.69018 32.0557 8.65702 32.0237 8.63351C31.9917 8.61 31.9529 8.59738 31.9132 8.5975H30.3509C30.3215 8.59755 30.2926 8.60454 30.2665 8.61788C30.2403 8.63123 30.2177 8.65057 30.2005 8.67431C30.1832 8.69783 30.1719 8.72515 30.1674 8.75396C30.1629 8.78277 30.1654 8.81224 30.1747 8.83988L32.4697 15.6655C32.495 15.741 32.5663 15.7915 32.6459 15.7915H33.8858C33.9658 15.7915 34.0367 15.741 34.062 15.666L35.4077 11.678L36.7529 15.6655C36.7782 15.741 36.8495 15.7915 36.9291 15.7915H38.1695C38.2495 15.7915 38.3203 15.741 38.3456 15.6655L40.6406 8.83988C40.6499 8.81226 40.6524 8.78283 40.648 8.75403C40.6436 8.72523 40.6324 8.6979 40.6153 8.67431C40.598 8.65053 40.5753 8.63118 40.5491 8.61783C40.5229 8.60448 40.4934 8.59798 40.464 8.59796ZM29.5833 8.78331V15.6053C29.5833 15.7078 29.5005 15.7906 29.3975 15.7906H28.0012C27.952 15.7906 27.9048 15.7711 27.8699 15.7364C27.8351 15.7016 27.8155 15.6545 27.8153 15.6053V8.78285C27.8153 8.68029 27.8981 8.59704 28.0012 8.59704H29.3975C29.5 8.59704 29.5833 8.68029 29.5833 8.78331Z" fill="#FF8C00" />
</svg>