<svg width="40" height="32" viewBox="0 0 40 32" fill="none" xmlns="http://www.w3.org/2000/svg">
  <g clip-path="url(#clip0_1_63)">
    <path d="M35.037 8.0455C35.0603 8.38587 35.0603 8.72623 35.0603 9.0698C35.0603 19.5372 27.1647 31.6094 12.7273 31.6094V31.6031C8.46238 31.6094 4.28612 30.3765 0.695801 28.0518C1.31595 28.127 1.9392 28.1647 2.56402 28.1662C6.09838 28.1694 9.53176 26.9726 12.3123 24.7686C8.95358 24.7043 6.00823 22.4941 4.97932 19.2674C6.15589 19.4964 7.36821 19.4494 8.52303 19.131C4.8612 18.3843 2.22674 15.1372 2.22674 11.3662C2.22674 11.3318 2.22674 11.2988 2.22674 11.2659C3.31783 11.8792 4.53947 12.2196 5.78908 12.2572C2.3402 9.93096 1.27709 5.30037 3.35979 1.67998C7.3449 6.629 13.2246 9.63765 19.5364 9.95605C18.9038 7.20468 19.7681 4.32155 21.8072 2.38743C24.9686 -0.611783 29.9406 -0.458058 32.9123 2.73096C34.6702 2.38116 36.355 1.73017 37.8969 0.807825C37.3109 2.64155 36.0846 4.1992 34.4464 5.189C36.0022 5.0039 37.5222 4.58351 38.9537 3.94194C37.8999 5.53566 36.5726 6.9239 35.037 8.0455Z" fill="#1D9BF0" />
  </g>
  <defs>
    <clipPath id="clip0_1_63">
      <rect width="39.2727" height="32" fill="white" transform="translate(0.17627)" />
    </clipPath>
  </defs>
</svg>