<svg width="46" height="32" viewBox="0 0 46 32" fill="none" xmlns="http://www.w3.org/2000/svg">
  <g clip-path="url(#clip0_1_53)">
    <path d="M44.2319 4.99613C43.9765 4.02986 43.4731 3.14798 42.7721 2.43875C42.0712 1.72952 41.1973 1.21781 40.2378 0.954842C36.7059 0 22.5882 0 22.5882 0C22.5882 0 8.47059 0 4.93861 0.954842C3.97916 1.21781 3.10524 1.72952 2.40431 2.43875C1.70337 3.14798 1.20001 4.02986 0.944602 4.99613C0 8.56258 0 16 0 16C0 16 0 23.4375 0.944602 27.0039C1.20001 27.9702 1.70337 28.852 2.40431 29.5612C3.10524 30.2705 3.97916 30.7822 4.93861 31.0452C8.47059 32 22.5882 32 22.5882 32C22.5882 32 36.7059 32 40.2378 31.0452C41.1973 30.7822 42.0712 30.2705 42.7721 29.5612C43.4731 28.852 43.9765 27.9702 44.2319 27.0039C45.1765 23.4375 45.1765 16 45.1765 16C45.1765 16 45.1765 8.56258 44.2319 4.99613Z" fill="#FF0000" />
    <path d="M17.9678 22.7536L29.7753 16.0001L17.9678 9.24658V22.7536Z" fill="white" />
  </g>
  <defs>
    <clipPath id="clip0_1_53">
      <rect width="45.1765" height="32" fill="white" />
    </clipPath>
  </defs>
</svg>