<svg width="33" height="32" viewBox="0 0 33 32" fill="none" xmlns="http://www.w3.org/2000/svg">
  <g clip-path="url(#clip0_1_75)">
    <path d="M16.8829 0.244141C10.3032 0.244141 8.3789 0.250929 8.00483 0.281958C6.65459 0.394197 5.81437 0.606797 4.899 1.06254C4.19357 1.41283 3.63722 1.81888 3.08815 2.38807C2.08818 3.42611 1.48214 4.70316 1.26275 6.22117C1.15609 6.95811 1.12506 7.10844 1.11875 10.8726C1.11633 12.1274 1.11875 13.7788 1.11875 15.9937C1.11875 22.568 1.12603 24.4904 1.15754 24.8638C1.26663 26.1776 1.47268 27.0043 1.90903 27.9085C2.74295 29.6394 4.33563 30.9387 6.21193 31.4236C6.86161 31.5908 7.57917 31.683 8.50037 31.7266C8.89063 31.7436 12.8687 31.7556 16.8492 31.7556C20.8297 31.7556 24.8102 31.7508 25.1908 31.7314C26.2574 31.6812 26.8768 31.5981 27.5616 31.4211C29.45 30.9339 31.0136 29.6539 31.8645 27.8988C32.2924 27.0164 32.5093 26.1582 32.6075 24.913C32.6288 24.6414 32.6378 20.3126 32.6378 15.9896C32.6378 11.6658 32.6281 7.34504 32.6068 7.07351C32.5074 5.80809 32.2904 4.95721 31.8487 4.05785C31.4863 3.32163 31.0839 2.77182 30.4997 2.20966C29.457 1.21381 28.1819 0.607766 26.6624 0.388621C25.9262 0.2822 25.7796 0.250686 22.0124 0.244141H16.8829Z" fill="#15191E" />
    <path d="M17.6217 11.7319H6.45117V23.7843H9.56033V19.8632H15.5179L18.2361 23.7843H21.7175L18.7201 19.8452C19.651 19.7007 20.3212 19.3573 20.7308 18.8152C21.1403 18.2732 21.3452 17.4058 21.3452 16.2493V15.3459C21.3452 14.6592 21.2708 14.1171 21.1403 13.7015C21.0101 13.2859 20.7867 12.9245 20.4702 12.5993C20.1351 12.2921 19.7627 12.0753 19.3159 11.9307C18.8691 11.8042 18.3105 11.7319 17.6217 11.7319ZM17.1191 17.207H9.56033V14.3881H17.1191C17.5472 14.3881 17.8451 14.4605 17.9941 14.5869C18.1429 14.7134 18.2361 14.9483 18.2361 15.2917V16.3036C18.2361 16.665 18.1429 16.8999 17.9941 17.0263C17.8451 17.1528 17.5472 17.207 17.1191 17.207Z" fill="white" />
    <path d="M25.4797 11.1313C26.6415 11.1313 27.584 10.1866 27.584 9.0212C27.584 7.85587 26.6415 6.91113 25.4797 6.91113C24.317 6.91113 23.3745 7.85587 23.3745 9.0212C23.3745 10.1866 24.317 11.1313 25.4797 11.1313Z" fill="#F41240" />
  </g>
  <defs>
    <clipPath id="clip0_1_75">
      <rect width="32" height="32" fill="white" transform="translate(0.87793)" />
    </clipPath>
  </defs>
</svg>