<svg width="32" height="32" viewBox="0 0 32 32" fill="none" xmlns="http://www.w3.org/2000/svg">
  <g clip-path="url(#clip0_1_37)">
    <path d="M29.3333 0H2.66667C1.19391 0 0 1.19391 0 2.66667V29.3333C0 30.8061 1.19391 32 2.66667 32H29.3333C30.8061 32 32 30.8061 32 29.3333V2.66667C32 1.19391 30.8061 0 29.3333 0Z" fill="black" />
    <path d="M13.6064 14.1096V13.2818C13.3228 13.2439 13.0344 13.2202 12.7367 13.2202C9.18716 13.2156 6.29932 16.1058 6.29932 19.663C6.29932 21.8438 7.38636 23.7738 9.0501 24.9422C7.97716 23.7927 7.32023 22.2458 7.32023 20.5524C7.32023 17.0471 10.1277 14.19 13.6064 14.1096Z" fill="#25F4EE" />
    <path d="M13.7625 23.4947C15.3458 23.4947 16.6408 22.2317 16.6976 20.6612L16.7024 6.62613H19.264C19.212 6.33758 19.1837 6.03956 19.1837 5.73682H15.6861L15.6814 19.7719C15.6247 21.3424 14.3296 22.6054 12.7463 22.6054C12.2548 22.6054 11.7916 22.4824 11.3804 22.2648C11.9097 23.0074 12.7794 23.4947 13.7625 23.4947Z" fill="#25F4EE" />
    <path d="M24.0514 11.3898V10.6093C23.0731 10.6093 22.1656 10.3207 21.3999 9.81934C22.0805 10.5999 23.0021 11.1675 24.0514 11.3898Z" fill="#25F4EE" />
    <path d="M21.4002 9.81947C20.6534 8.96327 20.2044 7.84694 20.2044 6.62646H19.2686C19.5096 7.96047 20.3037 9.1052 21.4002 9.81947Z" fill="#FE2C55" />
    <path d="M12.7411 16.7162C11.1199 16.7162 9.80127 18.036 9.80127 19.6585C9.80127 20.7891 10.4441 21.773 11.3799 22.265C11.0301 21.7824 10.8222 21.1912 10.8222 20.5478C10.8222 18.9253 12.1409 17.6055 13.7621 17.6055C14.0645 17.6055 14.3575 17.6575 14.6317 17.7427V14.1666C14.3481 14.1287 14.0598 14.105 13.7621 14.105C13.7101 14.105 13.6628 14.1098 13.6108 14.1098V16.8534C13.3319 16.7682 13.0436 16.7162 12.7411 16.7162Z" fill="#FE2C55" />
    <path d="M24.0515 11.3896V14.1096C22.2365 14.1096 20.5539 13.5278 19.1832 12.5438V19.6631C19.1832 23.2156 16.2954 26.1106 12.7411 26.1106C11.3705 26.1106 10.0943 25.6754 9.0498 24.9422C10.2267 26.2052 11.9045 27 13.7621 27C17.3115 27 20.2041 24.1096 20.2041 20.5524V13.4332C21.5748 14.4171 23.2574 14.9989 25.0723 14.9989V11.4984C24.7178 11.4984 24.3775 11.4606 24.0515 11.3896Z" fill="#FE2C55" />
    <path d="M19.1831 19.6634V12.5441C20.5538 13.5281 22.2364 14.1099 24.0513 14.1099V11.3899C23.002 11.1677 22.0804 10.6 21.3998 9.81947C20.3032 9.1052 19.514 7.96047 19.2634 6.62646H16.7018L16.697 20.6615C16.6403 22.232 15.3452 23.495 13.762 23.495C12.7788 23.495 11.9139 23.0078 11.3751 22.2699C10.4392 21.7731 9.79642 20.794 9.79642 19.6634C9.79642 18.0409 11.1151 16.7211 12.7363 16.7211C13.0388 16.7211 13.3318 16.7731 13.606 16.8583V14.1147C10.1273 14.1903 7.31982 17.0475 7.31982 20.5527C7.31982 22.2462 7.97676 23.7883 9.04969 24.9425C10.0942 25.6757 11.3704 26.1109 12.741 26.1109C16.2906 26.1109 19.1831 23.2159 19.1831 19.6634Z" fill="white" />
  </g>
  <defs>
    <clipPath id="clip0_1_37">
      <rect width="32" height="32" fill="white" />
    </clipPath>
  </defs>
</svg>