<svg width="32" height="32" viewBox="0 0 32 32" fill="none" xmlns="http://www.w3.org/2000/svg">
  <g clip-path="url(#clip0_1_48)">
    <path d="M16 32C24.8365 32 32 24.8365 32 16C32 7.16347 24.8365 0 16 0C7.16347 0 0 7.16347 0 16C0 24.8365 7.16347 32 16 32Z" fill="url(#paint0_linear_1_48)" />
    <path fill-rule="evenodd" clip-rule="evenodd" d="M7.24237 15.8309C11.9067 13.7987 15.017 12.459 16.5732 11.8117C21.0166 9.96355 21.9398 9.64255 22.5416 9.63195C22.674 9.62962 22.97 9.66242 23.1616 9.81795C23.3235 9.94928 23.368 10.1267 23.3894 10.2512C23.4107 10.3757 23.4372 10.6595 23.4161 10.8811C23.1754 13.4111 22.1334 19.5507 21.6034 22.3843C21.3791 23.5833 20.9375 23.9853 20.51 24.0247C19.5808 24.1101 18.8752 23.4106 17.9753 22.8207C16.5671 21.8976 15.7716 21.323 14.4046 20.4222C12.825 19.3812 13.849 18.8091 14.7493 17.874C14.9849 17.6293 19.0787 13.9056 19.158 13.5678C19.1679 13.5255 19.1771 13.3681 19.0835 13.2849C18.99 13.2018 18.8519 13.2302 18.7522 13.2528C18.611 13.2849 16.3614 14.7718 12.0034 17.7136C11.3648 18.1521 10.7864 18.3657 10.2682 18.3545C9.69697 18.3422 8.59803 18.0315 7.7811 17.7659C6.7791 17.4403 5.98271 17.2681 6.05206 16.7149C6.08818 16.4267 6.48495 16.1321 7.24237 15.8309Z" fill="white" />
  </g>
  <defs>
    <linearGradient id="paint0_linear_1_48" x1="16" y1="0" x2="16" y2="31.7627" gradientUnits="userSpaceOnUse">
      <stop stop-color="#2AABEE" />
      <stop offset="1" stop-color="#229ED9" />
    </linearGradient>
    <clipPath id="clip0_1_48">
      <rect width="32" height="32" fill="white" />
    </clipPath>
  </defs>
</svg>