<svg width="33" height="32" viewBox="0 0 33 32" fill="none" xmlns="http://www.w3.org/2000/svg">
  <g clip-path="url(#clip0_1_58)">
    <path d="M32.1763 16C32.1763 7.16347 25.0128 0 16.1763 0C7.33974 0 0.17627 7.16347 0.17627 16C0.17627 23.9859 6.02721 30.6053 13.6763 31.8056V20.625H9.61374V16H13.6763V12.475C13.6763 8.465 16.065 6.25 19.7197 6.25C21.4697 6.25 23.3013 6.5625 23.3013 6.5625V10.5H21.2838C19.2963 10.5 18.6763 11.7335 18.6763 13V16H23.1137L22.4044 20.625H18.6763V31.8056C26.3253 30.6053 32.1763 23.9859 32.1763 16Z" fill="#1877F2" />
    <path d="M22.4044 20.625L23.1138 16H18.6763V13C18.6763 11.7347 19.2963 10.5 21.2838 10.5H23.3013V6.5625C23.3013 6.5625 21.4704 6.25 19.7198 6.25C16.065 6.25 13.6763 8.465 13.6763 12.475V16H9.61377V20.625H13.6763V31.8056C15.3329 32.0648 17.0197 32.0648 18.6763 31.8056V20.625H22.4044Z" fill="white" />
  </g>
  <defs>
    <clipPath id="clip0_1_58">
      <rect width="32" height="32" fill="white" transform="translate(0.17627)" />
    </clipPath>
  </defs>
</svg>